<svg width="271" height="268" viewBox="0 0 271 268" fill="none" xmlns="http://www.w3.org/2000/svg">
<path d="M125.077 222.335C152.289 222.335 174.349 219.182 174.349 215.293C174.349 211.404 152.289 208.251 125.077 208.251C97.8654 208.251 75.8058 211.404 75.8058 215.293C75.8058 219.182 97.8654 222.335 125.077 222.335Z" fill="#7BE8D8"/>
<path opacity="0.5" d="M125.077 222.335C152.289 222.335 174.349 219.182 174.349 215.293C174.349 211.404 152.289 208.251 125.077 208.251C97.8654 208.251 75.8058 211.404 75.8058 215.293C75.8058 219.182 97.8654 222.335 125.077 222.335Z" fill="white"/>
<path d="M233.349 238.882C248.634 238.882 261.026 235.73 261.026 231.841C261.026 227.952 248.634 224.799 233.349 224.799C218.063 224.799 205.671 227.952 205.671 231.841C205.671 235.73 218.063 238.882 233.349 238.882Z" fill="#7BE8D8"/>
<path opacity="0.5" d="M233.349 238.882C248.634 238.882 261.026 235.73 261.026 231.841C261.026 227.952 248.634 224.799 233.349 224.799C218.063 224.799 205.671 227.952 205.671 231.841C205.671 235.73 218.063 238.882 233.349 238.882Z" fill="white"/>
<path d="M55.0405 172.206C54.9986 172.055 54.9891 171.896 55.0125 171.741C55.036 171.585 55.0919 171.437 55.1766 171.305C55.2613 171.172 55.3729 171.059 55.5041 170.973C55.6354 170.887 55.7833 170.829 55.9383 170.804C56.8755 170.676 58.0274 171.934 58.3917 172.696C58.4232 172.761 58.7973 173.848 58.7854 173.848C58.7736 173.848 57.1236 173.885 56.4463 173.59C55.8615 173.336 55.2039 172.854 55.0405 172.206ZM79.115 169.317C78.9772 169.971 78.3275 170.471 77.7545 170.739C77.1815 171.007 75.8308 171.054 75.4981 171.06C75.3189 171.275 75.1279 171.503 74.9231 171.763C74.5648 172.222 74.167 172.747 73.7713 173.338C73.6649 173.498 73.5586 173.671 73.4503 173.838C73.6905 173.594 74.0233 173.263 74.0587 173.234C74.7183 172.708 76.3034 172.08 77.0909 172.602C77.2196 172.692 77.3277 172.808 77.4083 172.943C77.4889 173.078 77.5401 173.229 77.5587 173.385C77.5773 173.541 77.5628 173.699 77.5161 173.849C77.4694 173.999 77.3917 174.138 77.2878 174.256C76.8645 174.771 76.0533 174.915 75.4232 174.89C74.7932 174.864 73.533 174.265 73.2574 174.132C73.025 174.506 72.7966 174.896 72.58 175.313C72.1825 176.07 71.853 176.86 71.5956 177.676L71.6428 177.699C71.8397 177.447 72.2532 176.926 72.2926 176.886C72.8833 176.295 74.3974 175.492 75.246 175.925C75.3837 176.001 75.5038 176.105 75.5987 176.23C75.6935 176.356 75.7608 176.499 75.7963 176.653C75.8318 176.806 75.8346 176.964 75.8046 177.119C75.7746 177.273 75.7124 177.419 75.6221 177.548C75.2578 178.107 74.4683 178.335 73.85 178.383C73.1254 178.434 71.6251 177.867 71.57 177.845C71.3339 178.665 71.1517 179.5 71.0246 180.344C70.9261 180.966 70.8533 181.602 70.7863 182.242C70.9163 182.061 71.4636 181.375 71.5089 181.33C72.0996 180.739 73.6137 179.936 74.4624 180.369C74.6 180.445 74.7202 180.549 74.815 180.674C74.9098 180.8 74.9772 180.943 75.0126 181.097C75.0481 181.25 75.0509 181.408 75.0209 181.563C74.9909 181.717 74.9287 181.863 74.8384 181.992C74.4742 182.551 73.6846 182.779 73.0664 182.827C72.3575 182.876 70.9182 182.34 70.7981 182.295C70.7686 182.584 70.7351 182.874 70.7076 183.165C70.615 184.114 70.5264 185.067 70.4102 186.004C70.3709 186.329 70.3177 186.648 70.2685 186.967C70.4654 186.701 70.8592 186.227 70.8907 186.19C71.4814 185.599 72.9955 184.796 73.8441 185.229C73.9818 185.304 74.1019 185.408 74.1967 185.534C74.2916 185.659 74.3589 185.803 74.3944 185.956C74.4299 186.109 74.4327 186.268 74.4027 186.422C74.3727 186.576 74.3105 186.723 74.2202 186.851C73.8559 187.41 73.0664 187.639 72.4383 187.684C71.8102 187.729 70.5855 187.304 70.2448 187.18C70.1562 187.712 70.0479 188.235 69.9357 188.755C69.8786 188.976 69.8353 189.202 69.7684 189.411C69.7014 189.619 69.6423 189.83 69.5715 190.037C69.4277 190.458 69.2978 190.852 69.154 191.242C69.0832 191.439 69.0123 191.624 68.9394 191.815C69.1068 191.516 69.3785 191.045 69.41 191.006C69.9101 190.326 71.2786 189.308 72.1666 189.61C72.314 189.664 72.4485 189.748 72.5612 189.857C72.6738 189.967 72.7622 190.099 72.8205 190.245C72.8789 190.39 72.9058 190.547 72.8997 190.704C72.8935 190.861 72.8544 191.014 72.7848 191.155C72.5092 191.764 71.7629 192.11 71.1486 192.25C70.4713 192.404 69.0162 192.108 68.837 192.071C68.6598 192.537 68.4846 192.99 68.3113 193.412C67.7659 194.743 67.2619 195.834 66.8976 196.59C66.8779 196.633 66.8582 196.67 66.8385 196.712H69.4907L68.5752 214.564C68.5432 215.224 68.2578 215.845 67.7787 216.299C67.2996 216.753 66.6636 217.004 66.0037 217C65.3497 216.998 64.7212 216.747 64.247 216.296C63.7729 215.846 63.4891 215.231 63.4539 214.578L62.5403 196.72H65.3854C65.3716 196.596 65.3579 196.466 65.3401 196.326C65.2456 195.501 65.0921 194.321 64.844 192.917C64.775 192.512 64.6924 192.085 64.6057 191.646C64.4206 191.669 62.9518 191.854 62.2882 191.646C61.6838 191.46 60.9671 191.055 60.7387 190.433C60.6796 190.287 60.6518 190.131 60.6572 189.974C60.6626 189.817 60.701 189.663 60.7699 189.521C60.8388 189.38 60.9367 189.255 61.0572 189.154C61.1777 189.054 61.318 188.979 61.4691 188.936C62.3847 188.702 63.6744 189.818 64.1233 190.535C64.1509 190.58 64.4305 191.159 64.5663 191.458C64.5132 191.193 64.46 190.929 64.399 190.653C64.3143 190.259 64.2021 189.84 64.1154 189.436C64.0564 189.23 63.9993 189.019 63.9402 188.808C63.8811 188.598 63.8063 188.395 63.7433 188.184C63.639 187.879 63.5149 187.568 63.3928 187.259C62.999 187.369 61.8177 187.672 61.2152 187.586C60.6126 187.499 59.8211 187.206 59.5002 186.621C59.4199 186.486 59.3689 186.335 59.3505 186.179C59.3322 186.023 59.3469 185.865 59.3937 185.715C59.4405 185.565 59.5183 185.426 59.6222 185.308C59.726 185.19 59.8535 185.095 59.9964 185.03C60.8666 184.662 62.3079 185.569 62.8612 186.211C62.8789 186.231 62.9813 186.379 63.1014 186.554C62.9734 186.255 62.8455 185.963 62.7076 185.658C62.3138 184.811 61.8787 183.961 61.4495 183.098C61.3609 182.921 61.2742 182.742 61.1856 182.563C60.8489 182.657 59.5789 182.998 58.9469 182.905C58.3149 182.813 57.5529 182.525 57.2319 181.94C57.1513 181.806 57.1001 181.655 57.0816 181.499C57.0631 181.343 57.0778 181.185 57.1246 181.035C57.1714 180.885 57.2494 180.747 57.3534 180.629C57.4574 180.511 57.5851 180.417 57.7281 180.352C58.5964 179.981 60.0397 180.891 60.593 181.533C60.6126 181.557 60.7347 181.73 60.8706 181.927C60.6442 181.458 60.4236 180.989 60.2189 180.519C59.8653 179.711 59.5653 178.88 59.321 178.032C59.2029 178.068 57.7222 178.497 57.0193 178.394C56.3951 178.304 55.6253 178.014 55.3043 177.43C55.2249 177.295 55.1744 177.146 55.1563 176.991C55.1381 176.836 55.1525 176.679 55.1987 176.53C55.2449 176.381 55.3218 176.244 55.4244 176.126C55.5271 176.009 55.6532 175.914 55.7946 175.849C56.6649 175.478 58.1062 176.388 58.6594 177.03C58.6988 177.075 59.1359 177.715 59.2856 177.947C59.2847 177.938 59.2847 177.928 59.2856 177.918C59.0662 177.079 58.9226 176.223 58.8563 175.358C58.7919 174.587 58.7735 173.812 58.8012 173.039C58.8169 172.322 58.876 171.661 58.9351 171.088C58.9686 170.773 59.004 170.487 59.0414 170.221L59.0257 170.231C59.0099 170.231 58.6929 169.138 58.6811 169.065C58.5413 168.233 58.7638 166.541 59.6026 166.112C59.7439 166.043 59.8981 166.005 60.0552 166.001C60.2122 165.996 60.3685 166.024 60.5138 166.084C60.6591 166.143 60.7902 166.233 60.8985 166.347C61.0068 166.461 61.0899 166.596 61.1423 166.744C61.3884 167.364 61.1206 168.142 60.7918 168.681C60.463 169.221 59.3624 170.005 59.0887 170.192C59.0552 170.469 59.0237 170.767 58.9961 171.097C58.9508 171.676 58.9056 172.33 58.9036 173.045C58.9036 173.242 58.9036 173.438 58.9134 173.635C58.9784 173.301 59.0729 172.848 59.0867 172.797C59.3466 171.993 60.3212 170.595 61.2683 170.595C61.4253 170.6 61.5795 170.638 61.7208 170.706C61.8622 170.775 61.9877 170.872 62.0891 170.992C62.1904 171.112 62.2655 171.252 62.3093 171.403C62.3531 171.553 62.3647 171.712 62.3434 171.867C62.2745 172.531 61.6779 173.098 61.1384 173.425C60.5989 173.752 59.2167 173.946 58.9193 173.982C58.9311 174.423 58.9567 174.874 59.0079 175.344C59.0937 176.198 59.2552 177.043 59.4903 177.869H59.5435C59.5652 177.552 59.6262 176.884 59.636 176.831C59.8073 176.004 60.6205 174.508 61.5637 174.405C61.7202 174.393 61.8777 174.413 62.0258 174.466C62.1739 174.518 62.3094 174.601 62.4234 174.709C62.5374 174.817 62.6274 174.948 62.6875 175.093C62.7477 175.238 62.7767 175.394 62.7726 175.551C62.7726 176.219 62.2449 176.847 61.7448 177.231C61.16 177.658 59.5967 178.014 59.5356 178.026C59.7911 178.84 60.0996 179.637 60.4591 180.411C60.717 180.984 61.0123 181.559 61.3077 182.126C61.3077 181.901 61.3943 181.029 61.4081 180.966C61.5794 180.139 62.3926 178.642 63.3338 178.54C63.4902 178.527 63.6477 178.548 63.7958 178.6C63.9439 178.652 64.0794 178.735 64.1934 178.842C64.3074 178.95 64.3975 179.081 64.4577 179.226C64.5178 179.371 64.5468 179.527 64.5427 179.684C64.5427 180.352 64.017 180.98 63.5169 181.364C62.9538 181.797 61.4573 182.151 61.3313 182.173C61.4672 182.431 61.5991 182.691 61.7369 182.949C62.1839 183.791 62.6348 184.634 63.0542 185.481C63.1999 185.774 63.3338 186.071 63.4677 186.363C63.4913 186.028 63.5484 185.422 63.5582 185.368C63.7295 184.543 64.5427 183.045 65.4839 182.943C65.6405 182.93 65.7979 182.951 65.946 183.003C66.0941 183.055 66.2296 183.138 66.3436 183.246C66.4576 183.354 66.5476 183.485 66.6078 183.63C66.6679 183.775 66.6969 183.932 66.6928 184.089C66.6928 184.756 66.1671 185.384 65.667 185.768C65.1669 186.152 63.9126 186.473 63.5582 186.556C63.7788 187.046 63.9855 187.54 64.1666 188.032C64.2395 188.247 64.3281 188.462 64.3872 188.672L64.5841 189.297C64.6983 189.728 64.8066 190.127 64.9011 190.533C64.9523 190.73 64.9936 190.927 65.0389 191.124C65.0133 190.783 64.9818 190.24 64.9838 190.19C65.0271 189.348 65.606 187.743 66.5196 187.501C66.6731 187.463 66.833 187.457 66.9887 187.486C67.1444 187.514 67.2923 187.575 67.4227 187.665C67.553 187.754 67.6628 187.871 67.7447 188.006C67.8266 188.142 67.8788 188.293 67.8978 188.45C67.911 188.531 67.9163 188.614 67.9136 188.696C68.2872 189.339 68.4905 190.067 68.5043 190.811C68.5043 190.864 68.4157 191.502 68.3645 191.825C68.4669 191.575 68.5614 191.325 68.6677 191.063C68.8154 190.685 68.9611 190.275 69.1028 189.881C69.1678 189.684 69.2348 189.468 69.2997 189.259C69.3647 189.05 69.4159 188.84 69.475 188.629C69.5577 188.316 69.6266 187.989 69.6955 187.662C69.3017 187.536 68.1538 187.141 67.699 186.735C67.2441 186.329 66.746 185.648 66.7991 184.983C66.8069 184.826 66.8476 184.672 66.9185 184.532C66.9895 184.392 67.089 184.268 67.2108 184.169C67.3326 184.07 67.4739 183.998 67.6255 183.957C67.7771 183.916 67.9356 183.907 68.0908 183.931C69.0201 184.102 69.7211 185.656 69.8314 186.491C69.8314 186.516 69.8314 186.688 69.8314 186.91C69.8904 186.589 69.9495 186.27 69.9968 185.943C70.1326 185.018 70.2409 184.069 70.3551 183.122C70.3768 182.925 70.4043 182.728 70.428 182.531C70.0972 182.425 68.8528 182.007 68.3724 181.582C67.8919 181.157 67.4194 180.495 67.4745 179.832C67.4818 179.675 67.522 179.521 67.5926 179.381C67.6632 179.24 67.7625 179.117 67.8842 179.017C68.0059 178.918 68.1471 178.845 68.2988 178.804C68.4504 178.763 68.609 178.754 68.7642 178.778C69.6955 178.95 70.3965 180.505 70.5047 181.338C70.5047 181.368 70.5047 181.582 70.5166 181.822C70.5855 181.306 70.6623 180.795 70.7509 180.289C70.9017 179.423 71.1095 178.567 71.3731 177.729C71.2569 177.691 69.7841 177.233 69.2545 176.76C68.7839 176.339 68.3015 175.673 68.3546 175.008C68.3624 174.851 68.4031 174.697 68.474 174.557C68.5449 174.417 68.6445 174.294 68.7663 174.194C68.8881 174.095 69.0294 174.023 69.181 173.982C69.3326 173.941 69.4911 173.932 69.6463 173.956C70.5756 174.128 71.2766 175.681 71.3868 176.516C71.3868 176.575 71.4065 177.349 71.4006 177.626V177.597C71.6811 176.78 72.033 175.989 72.4521 175.234C72.8249 174.554 73.2372 173.897 73.6866 173.265C74.0961 172.675 74.5077 172.163 74.868 171.712C75.0649 171.468 75.2618 171.249 75.435 171.046H75.4134C75.3976 171.046 75.7422 169.949 75.7717 169.883C76.1143 169.113 77.2307 167.823 78.1719 167.925C78.33 167.945 78.4821 167.998 78.6179 168.081C78.7538 168.164 78.8703 168.275 78.9596 168.407C79.049 168.539 79.1091 168.689 79.1359 168.846C79.1627 169.002 79.1556 169.163 79.115 169.317V169.317ZM68.2719 192.004C68.1125 191.925 66.872 191.311 66.3876 190.787C65.9698 191.018 65.5384 191.224 65.096 191.403C65.2063 191.89 65.3086 192.366 65.3953 192.813C65.6768 194.225 65.856 195.41 65.9702 196.243C65.9958 196.42 66.0155 196.58 66.0352 196.724H66.0982L66.2951 196.32C66.6712 195.58 67.1929 194.512 67.762 193.205C67.9352 192.821 68.1046 192.417 68.2719 192.004ZM73.2259 173.954C73.2416 173.964 73.5271 172.852 73.5389 172.773C73.6551 171.936 73.3873 170.253 72.5367 169.841C72.3924 169.777 72.2361 169.744 72.0782 169.745C71.9203 169.746 71.7643 169.78 71.6206 169.845C71.4768 169.91 71.3485 170.005 71.244 170.124C71.1396 170.242 71.0615 170.381 71.0147 170.532C70.7863 171.158 71.0757 171.928 71.4085 172.458C71.82 173.07 73.2259 173.954 73.2259 173.954Z" fill="#7BE8D8"/>
<path opacity="0.3" d="M55.0405 172.206C54.9986 172.055 54.9891 171.896 55.0125 171.741C55.036 171.585 55.0919 171.437 55.1766 171.305C55.2613 171.172 55.3729 171.059 55.5041 170.973C55.6354 170.887 55.7833 170.829 55.9383 170.804C56.8755 170.676 58.0274 171.934 58.3917 172.696C58.4232 172.761 58.7973 173.848 58.7854 173.848C58.7736 173.848 57.1236 173.885 56.4463 173.59C55.8615 173.336 55.2039 172.854 55.0405 172.206ZM79.115 169.317C78.9772 169.971 78.3275 170.471 77.7545 170.739C77.1815 171.007 75.8308 171.054 75.4981 171.06C75.3189 171.275 75.1279 171.503 74.9231 171.763C74.5648 172.222 74.167 172.747 73.7713 173.338C73.6649 173.498 73.5586 173.671 73.4503 173.838C73.6905 173.594 74.0233 173.263 74.0587 173.234C74.7183 172.708 76.3034 172.08 77.0909 172.602C77.2196 172.692 77.3277 172.808 77.4083 172.943C77.4889 173.078 77.5401 173.229 77.5587 173.385C77.5773 173.541 77.5628 173.699 77.5161 173.849C77.4694 173.999 77.3917 174.138 77.2878 174.256C76.8645 174.771 76.0533 174.915 75.4232 174.89C74.7932 174.864 73.533 174.265 73.2574 174.132C73.025 174.506 72.7966 174.896 72.58 175.313C72.1825 176.07 71.853 176.86 71.5956 177.676L71.6428 177.699C71.8397 177.447 72.2532 176.926 72.2926 176.886C72.8833 176.295 74.3974 175.492 75.246 175.925C75.3837 176.001 75.5038 176.105 75.5987 176.23C75.6935 176.356 75.7608 176.499 75.7963 176.653C75.8318 176.806 75.8346 176.964 75.8046 177.119C75.7746 177.273 75.7124 177.419 75.6221 177.548C75.2578 178.107 74.4683 178.335 73.85 178.383C73.1254 178.434 71.6251 177.867 71.57 177.845C71.3339 178.665 71.1517 179.5 71.0246 180.344C70.9261 180.966 70.8533 181.602 70.7863 182.242C70.9163 182.061 71.4636 181.375 71.5089 181.33C72.0996 180.739 73.6137 179.936 74.4624 180.369C74.6 180.445 74.7202 180.549 74.815 180.674C74.9098 180.8 74.9772 180.943 75.0126 181.097C75.0481 181.25 75.0509 181.408 75.0209 181.563C74.9909 181.717 74.9287 181.863 74.8384 181.992C74.4742 182.551 73.6846 182.779 73.0664 182.827C72.3575 182.876 70.9182 182.34 70.7981 182.295C70.7686 182.584 70.7351 182.874 70.7076 183.165C70.615 184.114 70.5264 185.067 70.4102 186.004C70.3709 186.329 70.3177 186.648 70.2685 186.967C70.4654 186.701 70.8592 186.227 70.8907 186.19C71.4814 185.599 72.9955 184.796 73.8441 185.229C73.9818 185.304 74.1019 185.408 74.1967 185.534C74.2916 185.659 74.3589 185.803 74.3944 185.956C74.4299 186.109 74.4327 186.268 74.4027 186.422C74.3727 186.576 74.3105 186.723 74.2202 186.851C73.8559 187.41 73.0664 187.639 72.4383 187.684C71.8102 187.729 70.5855 187.304 70.2448 187.18C70.1562 187.712 70.0479 188.235 69.9357 188.755C69.8786 188.976 69.8353 189.202 69.7684 189.411C69.7014 189.619 69.6423 189.83 69.5715 190.037C69.4277 190.458 69.2978 190.852 69.154 191.242C69.0832 191.439 69.0123 191.624 68.9394 191.815C69.1068 191.516 69.3785 191.045 69.41 191.006C69.9101 190.326 71.2786 189.308 72.1666 189.61C72.314 189.664 72.4485 189.748 72.5612 189.857C72.6738 189.967 72.7622 190.099 72.8205 190.245C72.8789 190.39 72.9058 190.547 72.8997 190.704C72.8935 190.861 72.8544 191.014 72.7848 191.155C72.5092 191.764 71.7629 192.11 71.1486 192.25C70.4713 192.404 69.0162 192.108 68.837 192.071C68.6598 192.537 68.4846 192.99 68.3113 193.412C67.7659 194.743 67.2619 195.834 66.8976 196.59C66.8779 196.633 66.8582 196.67 66.8385 196.712H69.4907L68.5752 214.564C68.5432 215.224 68.2578 215.845 67.7787 216.299C67.2996 216.753 66.6636 217.004 66.0037 217C65.3497 216.998 64.7212 216.747 64.247 216.296C63.7729 215.846 63.4891 215.231 63.4539 214.578L62.5403 196.72H65.3854C65.3716 196.596 65.3579 196.466 65.3401 196.326C65.2456 195.501 65.0921 194.321 64.844 192.917C64.775 192.512 64.6924 192.085 64.6057 191.646C64.4206 191.669 62.9518 191.854 62.2882 191.646C61.6838 191.46 60.9671 191.055 60.7387 190.433C60.6796 190.287 60.6518 190.131 60.6572 189.974C60.6626 189.817 60.701 189.663 60.7699 189.521C60.8388 189.38 60.9367 189.255 61.0572 189.154C61.1777 189.054 61.318 188.979 61.4691 188.936C62.3847 188.702 63.6744 189.818 64.1233 190.535C64.1509 190.58 64.4305 191.159 64.5663 191.458C64.5132 191.193 64.46 190.929 64.399 190.653C64.3143 190.259 64.2021 189.84 64.1154 189.436C64.0564 189.23 63.9993 189.019 63.9402 188.808C63.8811 188.598 63.8063 188.395 63.7433 188.184C63.639 187.879 63.5149 187.568 63.3928 187.259C62.999 187.369 61.8177 187.672 61.2152 187.586C60.6126 187.499 59.8211 187.206 59.5002 186.621C59.4199 186.486 59.3689 186.335 59.3505 186.179C59.3322 186.023 59.3469 185.865 59.3937 185.715C59.4405 185.565 59.5183 185.426 59.6222 185.308C59.726 185.19 59.8535 185.095 59.9964 185.03C60.8666 184.662 62.3079 185.569 62.8612 186.211C62.8789 186.231 62.9813 186.379 63.1014 186.554C62.9734 186.255 62.8455 185.963 62.7076 185.658C62.3138 184.811 61.8787 183.961 61.4495 183.098C61.3609 182.921 61.2742 182.742 61.1856 182.563C60.8489 182.657 59.5789 182.998 58.9469 182.905C58.3149 182.813 57.5529 182.525 57.2319 181.94C57.1513 181.806 57.1001 181.655 57.0816 181.499C57.0631 181.343 57.0778 181.185 57.1246 181.035C57.1714 180.885 57.2494 180.747 57.3534 180.629C57.4574 180.511 57.5851 180.417 57.7281 180.352C58.5964 179.981 60.0397 180.891 60.593 181.533C60.6126 181.557 60.7347 181.73 60.8706 181.927C60.6442 181.458 60.4236 180.989 60.2189 180.519C59.8653 179.711 59.5653 178.88 59.321 178.032C59.2029 178.068 57.7222 178.497 57.0193 178.394C56.3951 178.304 55.6253 178.014 55.3043 177.43C55.2249 177.295 55.1744 177.146 55.1563 176.991C55.1381 176.836 55.1525 176.679 55.1987 176.53C55.2449 176.381 55.3218 176.244 55.4244 176.126C55.5271 176.009 55.6532 175.914 55.7946 175.849C56.6649 175.478 58.1062 176.388 58.6594 177.03C58.6988 177.075 59.1359 177.715 59.2856 177.947C59.2847 177.938 59.2847 177.928 59.2856 177.918C59.0662 177.079 58.9226 176.223 58.8563 175.358C58.7919 174.587 58.7735 173.812 58.8012 173.039C58.8169 172.322 58.876 171.661 58.9351 171.088C58.9686 170.773 59.004 170.487 59.0414 170.221L59.0257 170.231C59.0099 170.231 58.6929 169.138 58.6811 169.065C58.5413 168.233 58.7638 166.541 59.6026 166.112C59.7439 166.043 59.8981 166.005 60.0552 166.001C60.2122 165.996 60.3685 166.024 60.5138 166.084C60.6591 166.143 60.7902 166.233 60.8985 166.347C61.0068 166.461 61.0899 166.596 61.1423 166.744C61.3884 167.364 61.1206 168.142 60.7918 168.681C60.463 169.221 59.3624 170.005 59.0887 170.192C59.0552 170.469 59.0237 170.767 58.9961 171.097C58.9508 171.676 58.9056 172.33 58.9036 173.045C58.9036 173.242 58.9036 173.438 58.9134 173.635C58.9784 173.301 59.0729 172.848 59.0867 172.797C59.3466 171.993 60.3212 170.595 61.2683 170.595C61.4253 170.6 61.5795 170.638 61.7208 170.706C61.8622 170.775 61.9877 170.872 62.0891 170.992C62.1904 171.112 62.2655 171.252 62.3093 171.403C62.3531 171.553 62.3647 171.712 62.3434 171.867C62.2745 172.531 61.6779 173.098 61.1384 173.425C60.5989 173.752 59.2167 173.946 58.9193 173.982C58.9311 174.423 58.9567 174.874 59.0079 175.344C59.0937 176.198 59.2552 177.043 59.4903 177.869H59.5435C59.5652 177.552 59.6262 176.884 59.636 176.831C59.8073 176.004 60.6205 174.508 61.5637 174.405C61.7202 174.393 61.8777 174.413 62.0258 174.466C62.1739 174.518 62.3094 174.601 62.4234 174.709C62.5374 174.817 62.6274 174.948 62.6875 175.093C62.7477 175.238 62.7767 175.394 62.7726 175.551C62.7726 176.219 62.2449 176.847 61.7448 177.231C61.16 177.658 59.5967 178.014 59.5356 178.026C59.7911 178.84 60.0996 179.637 60.4591 180.411C60.717 180.984 61.0123 181.559 61.3077 182.126C61.3077 181.901 61.3943 181.029 61.4081 180.966C61.5794 180.139 62.3926 178.642 63.3338 178.54C63.4902 178.527 63.6477 178.548 63.7958 178.6C63.9439 178.652 64.0794 178.735 64.1934 178.842C64.3074 178.95 64.3975 179.081 64.4577 179.226C64.5178 179.371 64.5468 179.527 64.5427 179.684C64.5427 180.352 64.017 180.98 63.5169 181.364C62.9538 181.797 61.4573 182.151 61.3313 182.173C61.4672 182.431 61.5991 182.691 61.7369 182.949C62.1839 183.791 62.6348 184.634 63.0542 185.481C63.1999 185.774 63.3338 186.071 63.4677 186.363C63.4913 186.028 63.5484 185.422 63.5582 185.368C63.7295 184.543 64.5427 183.045 65.4839 182.943C65.6405 182.93 65.7979 182.951 65.946 183.003C66.0941 183.055 66.2296 183.138 66.3436 183.246C66.4576 183.354 66.5476 183.485 66.6078 183.63C66.6679 183.775 66.6969 183.932 66.6928 184.089C66.6928 184.756 66.1671 185.384 65.667 185.768C65.1669 186.152 63.9126 186.473 63.5582 186.556C63.7788 187.046 63.9855 187.54 64.1666 188.032C64.2395 188.247 64.3281 188.462 64.3872 188.672L64.5841 189.297C64.6983 189.728 64.8066 190.127 64.9011 190.533C64.9523 190.73 64.9936 190.927 65.0389 191.124C65.0133 190.783 64.9818 190.24 64.9838 190.19C65.0271 189.348 65.606 187.743 66.5196 187.501C66.6731 187.463 66.833 187.457 66.9887 187.486C67.1444 187.514 67.2923 187.575 67.4227 187.665C67.553 187.754 67.6628 187.871 67.7447 188.006C67.8266 188.142 67.8788 188.293 67.8978 188.45C67.911 188.531 67.9163 188.614 67.9136 188.696C68.2872 189.339 68.4905 190.067 68.5043 190.811C68.5043 190.864 68.4157 191.502 68.3645 191.825C68.4669 191.575 68.5614 191.325 68.6677 191.063C68.8154 190.685 68.9611 190.275 69.1028 189.881C69.1678 189.684 69.2348 189.468 69.2997 189.259C69.3647 189.05 69.4159 188.84 69.475 188.629C69.5577 188.316 69.6266 187.989 69.6955 187.662C69.3017 187.536 68.1538 187.141 67.699 186.735C67.2441 186.329 66.746 185.648 66.7991 184.983C66.8069 184.826 66.8476 184.672 66.9185 184.532C66.9895 184.392 67.089 184.268 67.2108 184.169C67.3326 184.07 67.4739 183.998 67.6255 183.957C67.7771 183.916 67.9356 183.907 68.0908 183.931C69.0201 184.102 69.7211 185.656 69.8314 186.491C69.8314 186.516 69.8314 186.688 69.8314 186.91C69.8904 186.589 69.9495 186.27 69.9968 185.943C70.1326 185.018 70.2409 184.069 70.3551 183.122C70.3768 182.925 70.4043 182.728 70.428 182.531C70.0972 182.425 68.8528 182.007 68.3724 181.582C67.8919 181.157 67.4194 180.495 67.4745 179.832C67.4818 179.675 67.522 179.521 67.5926 179.381C67.6632 179.24 67.7625 179.117 67.8842 179.017C68.0059 178.918 68.1471 178.845 68.2988 178.804C68.4504 178.763 68.609 178.754 68.7642 178.778C69.6955 178.95 70.3965 180.505 70.5047 181.338C70.5047 181.368 70.5047 181.582 70.5166 181.822C70.5855 181.306 70.6623 180.795 70.7509 180.289C70.9017 179.423 71.1095 178.567 71.3731 177.729C71.2569 177.691 69.7841 177.233 69.2545 176.76C68.7839 176.339 68.3015 175.673 68.3546 175.008C68.3624 174.851 68.4031 174.697 68.474 174.557C68.5449 174.417 68.6445 174.294 68.7663 174.194C68.8881 174.095 69.0294 174.023 69.181 173.982C69.3326 173.941 69.4911 173.932 69.6463 173.956C70.5756 174.128 71.2766 175.681 71.3868 176.516C71.3868 176.575 71.4065 177.349 71.4006 177.626V177.597C71.6811 176.78 72.033 175.989 72.4521 175.234C72.8249 174.554 73.2372 173.897 73.6866 173.265C74.0961 172.675 74.5077 172.163 74.868 171.712C75.0649 171.468 75.2618 171.249 75.435 171.046H75.4134C75.3976 171.046 75.7422 169.949 75.7717 169.883C76.1143 169.113 77.2307 167.823 78.1719 167.925C78.33 167.945 78.4821 167.998 78.6179 168.081C78.7538 168.164 78.8703 168.275 78.9596 168.407C79.049 168.539 79.1091 168.689 79.1359 168.846C79.1627 169.002 79.1556 169.163 79.115 169.317V169.317ZM68.2719 192.004C68.1125 191.925 66.872 191.311 66.3876 190.787C65.9698 191.018 65.5384 191.224 65.096 191.403C65.2063 191.89 65.3086 192.366 65.3953 192.813C65.6768 194.225 65.856 195.41 65.9702 196.243C65.9958 196.42 66.0155 196.58 66.0352 196.724H66.0982L66.2951 196.32C66.6712 195.58 67.1929 194.512 67.762 193.205C67.9352 192.821 68.1046 192.417 68.2719 192.004ZM73.2259 173.954C73.2416 173.964 73.5271 172.852 73.5389 172.773C73.6551 171.936 73.3873 170.253 72.5367 169.841C72.3924 169.777 72.2361 169.744 72.0782 169.745C71.9203 169.746 71.7643 169.78 71.6206 169.845C71.4768 169.91 71.3485 170.005 71.244 170.124C71.1396 170.242 71.0615 170.381 71.0147 170.532C70.7863 171.158 71.0757 171.928 71.4085 172.458C71.82 173.07 73.2259 173.954 73.2259 173.954Z" fill="white"/>
<path d="M225.244 220.842C222.883 222.565 220.394 224.106 217.798 225.451C214.727 226.866 214.134 226.866 214.251 227.694C214.369 228.522 217.916 229.82 224.416 228.287C230.916 226.755 233.987 227.101 234.933 224.03C235.878 220.959 234.346 221.787 232.455 221.787C230.037 221.599 227.63 221.283 225.244 220.842V220.842Z" fill="#2E353A" stroke="#2E353A" stroke-linecap="round" stroke-linejoin="round"/>
<path d="M234.581 224.845C231.81 225.575 226.815 226.801 222.643 227.453C219.903 227.949 217.087 227.824 214.401 227.088C214.329 227.167 214.277 227.264 214.251 227.369C214.225 227.473 214.225 227.583 214.251 227.688C214.369 228.516 217.916 229.813 224.416 228.281C230.271 226.905 233.335 227.042 234.581 224.845Z" fill="white" stroke="#2E353A" stroke-linecap="round" stroke-linejoin="round"/>
<path d="M257.14 164.411C257.14 164.411 257.381 168.551 254.532 174.224C251.683 179.896 243.324 180.365 241.081 180.365C238.838 180.365 239.543 178.005 239.543 178.005L239.895 175.873L236.113 174.928C236.113 174.928 226.072 188.287 226.072 189.35C226.072 190.413 236.452 214.811 237.045 217.647C237.639 220.483 237.991 221.194 236.687 222.256C235.721 222.938 234.611 223.388 233.443 223.572C232.275 223.757 231.081 223.67 229.952 223.319C228.196 222.77 226.496 222.058 224.873 221.194C224.806 220.132 224.806 219.067 224.873 218.005C224.99 216.943 226.763 217.771 225.935 215.997C225.107 214.224 224.631 213.748 224.162 212.568C223.692 211.388 212.511 192.753 212.987 188.378C213.463 184.004 223.947 168.818 223.947 168.466C224.388 167.359 224.9 166.281 225.479 165.239C225.479 165.239 225.948 163.7 227.135 163.466C228.322 163.231 246.395 163.466 251.005 162.879C255.614 162.292 257.857 162.52 257.14 164.411Z" fill="#7BE8D8" stroke="#2E353A" stroke-linecap="round" stroke-linejoin="round"/>
<path d="M227.676 197.963L228.348 199.391" stroke="#2E353A" stroke-width="0.75" stroke-linecap="round" stroke-linejoin="round"/>
<path d="M229.789 181.748L224.69 188.411C224.69 188.411 218.17 189.2 220.126 189.33C222.082 189.461 224.038 189.461 224.038 189.461C224.038 189.461 222.336 189.982 222.734 190.243C223.192 190.426 223.682 190.515 224.175 190.504L226.959 196.424" stroke="#2E353A" stroke-width="0.75" stroke-linecap="round" stroke-linejoin="round"/>
<path d="M219.826 114.657C219.826 114.657 218.176 115.57 215.692 116.984C213.208 118.399 211.78 119.11 211.441 120.297C211.102 121.483 203.872 136.284 203.872 136.284C203.872 136.284 206.708 137.94 209.309 139.12C211.286 139.932 213.345 140.527 215.451 140.893L217.818 135.932C217.818 135.932 222.382 144.551 224.338 147.628C227.82 153.125 226.698 156.496 226.229 158.386C225.759 160.277 224.455 163.824 224.807 164.294C225.159 164.763 234.379 168.903 240.292 168.551C246.206 168.199 256.338 167.651 257.049 166.823C257.759 165.995 257.877 161.223 257.877 160.864C257.877 160.505 256.834 151.293 255.771 145.738C254.708 140.183 248.918 125.291 247.027 121.275C245.137 117.258 243.363 115.954 238.551 114.305C233.74 112.655 226.613 112.297 223.66 112.649C220.706 113.001 219.826 114.657 219.826 114.657Z" fill="#2E353A" stroke="#2E353A" stroke-linecap="round" stroke-linejoin="round"/>
<path d="M239.719 130.507L247.04 132.861L240.899 133.513" stroke="white" stroke-width="0.75" stroke-linecap="round" stroke-linejoin="round"/>
<path d="M227.696 149.2C227.696 149.2 234.75 154.95 243.383 154.95" stroke="white" stroke-width="0.75" stroke-linecap="round" stroke-linejoin="round"/>
<path d="M230.049 154.429C230.049 154.429 235.917 157.174 241.942 156.261" stroke="white" stroke-width="0.75" stroke-linecap="round" stroke-linejoin="round"/>
<path d="M214.884 128.681L217.818 135.932L211.617 126.98" stroke="white" stroke-width="0.75" stroke-linecap="round" stroke-linejoin="round"/>
<path d="M219.324 115.485C219.164 116.817 219.125 118.162 219.207 119.501C219.324 121.985 220.152 123.759 219.441 125.532C218.731 127.306 219.565 128.14 220.269 127.306C220.974 126.471 222.16 123.283 222.401 122.696C222.643 122.109 227.617 121.04 228.308 121.04C229 121.04 231.262 124.587 232.325 125.056C233.388 125.526 233.153 124.587 232.442 122.696C231.731 120.805 230.91 114.22 229.254 112.173C227.598 110.125 221.006 110.641 219.324 115.485Z" fill="white" stroke="#2E353A" stroke-linecap="round" stroke-linejoin="round"/>
<path d="M220.537 117.61C219.885 117.382 223.96 123.641 225.616 126.83C227.272 130.018 228.804 129.196 229.045 126.712C229.287 124.228 228.217 115.954 228.217 115.954C228.217 115.954 223.96 118.797 220.537 117.61Z" fill="white" stroke="#2E353A" stroke-linecap="round" stroke-linejoin="round"/>
<path d="M229 123.739C227.475 124.393 225.787 124.566 224.162 124.235C224.716 125.187 225.231 126.093 225.616 126.843C227.272 130.031 228.804 129.209 229.045 126.725C229.096 125.73 229.081 124.732 229 123.739V123.739Z" fill="#7BE8D8" stroke="#2E353A" stroke-linecap="round" stroke-linejoin="round"/>
<path d="M232.468 167.762V182.374" stroke="#2E353A" stroke-width="4" stroke-linecap="round" stroke-linejoin="round"/>
<path d="M245 171.055C244.933 171.061 244.865 171.061 244.798 171.055L222.819 168.447C222.383 168.378 221.991 168.143 221.725 167.791C221.459 167.44 221.339 166.999 221.39 166.561C221.441 166.123 221.66 165.721 222.001 165.441C222.341 165.161 222.777 165.023 223.216 165.056L245.195 167.664C245.639 167.7 246.05 167.908 246.342 168.243C246.634 168.578 246.783 169.015 246.758 169.458C246.732 169.902 246.534 170.318 246.205 170.618C245.877 170.918 245.444 171.077 245 171.061V171.055Z" fill="white" stroke="#2E353A" stroke-linecap="round" stroke-linejoin="round"/>
<path d="M245.098 170.514C245.684 170.514 246.16 169.953 246.16 169.262C246.16 168.57 245.684 168.01 245.098 168.01C244.511 168.01 244.035 168.57 244.035 169.262C244.035 169.953 244.511 170.514 245.098 170.514Z" fill="white" stroke="#2E353A" stroke-width="0.75" stroke-linecap="round" stroke-linejoin="round"/>
<path d="M225.14 232.154L238.317 238.641C238.393 238.675 238.475 238.692 238.558 238.692C238.641 238.692 238.723 238.675 238.799 238.641L246.708 235.714C246.821 235.672 246.919 235.598 246.989 235.5C247.06 235.403 247.099 235.286 247.104 235.166C247.108 235.046 247.076 234.927 247.013 234.825C246.949 234.723 246.857 234.642 246.747 234.592L234.398 228.874C234.272 228.816 234.129 228.802 233.994 228.835L225.27 231.019C225.148 231.048 225.038 231.113 224.955 231.206C224.872 231.3 224.82 231.416 224.805 231.541C224.791 231.665 224.816 231.79 224.875 231.9C224.935 232.01 225.028 232.098 225.14 232.154Z" fill="white" stroke="#2E353A" stroke-linecap="round" stroke-linejoin="round"/>
<path d="M235.624 234.312H233.016C232.423 234.31 231.856 234.074 231.437 233.655C231.017 233.236 230.781 232.668 230.78 232.075L229.143 184.284C229.143 183.746 229.357 183.23 229.737 182.85C230.117 182.47 230.633 182.256 231.171 182.256H234.203C234.74 182.256 235.256 182.47 235.636 182.85C236.017 183.23 236.23 183.746 236.23 184.284L237.867 232.075C237.867 232.37 237.809 232.661 237.696 232.933C237.583 233.205 237.418 233.451 237.21 233.659C237.001 233.867 236.754 234.031 236.482 234.143C236.21 234.255 235.918 234.313 235.624 234.312V234.312Z" fill="white" stroke="#2E353A" stroke-linecap="round" stroke-linejoin="round"/>
<path d="M242.027 232.656C240.044 234.518 237.952 236.26 235.761 237.872C233.153 239.645 232.925 239.41 233.518 240.591C234.111 241.771 235.878 242.481 240.846 241.419C245.815 240.356 247.464 239.528 250.183 237.989C252.902 236.45 253.723 236.45 253.019 235.505C252.315 234.56 242.027 232.656 242.027 232.656Z" fill="#2E353A" stroke="#2E353A" stroke-linecap="round" stroke-linejoin="round"/>
<path d="M250.183 237.976C252.895 236.437 253.723 236.437 253.019 235.492C252.833 235.318 252.61 235.187 252.367 235.107C248.764 237.237 244.949 238.985 240.983 240.323C235.898 241.856 233.42 240.082 233.42 240.082L233.361 240.18C233.413 240.309 233.472 240.435 233.537 240.558C234.124 241.738 235.898 242.449 240.866 241.386C245.834 240.323 247.464 239.515 250.183 237.976Z" fill="white" stroke="#2E353A" stroke-linecap="round" stroke-linejoin="round"/>
<path d="M260.713 138.174C259.868 136.324 259.119 134.43 258.47 132.502C256.488 133.447 250.431 138.52 250.431 138.52L255.751 145.725C255.751 145.725 250.672 153.053 248.305 157.193C246.566 160.018 244.415 162.567 241.922 164.756L236.113 164.685C235.856 164.848 235.64 165.067 235.481 165.325C235.322 165.584 235.223 165.875 235.194 166.178C235.194 167.091 234.163 170.305 234.62 170.879C235.076 171.452 237.834 171.563 237.834 171.563C237.834 171.563 242.307 172.026 243.109 170.879C243.109 170.879 241.733 169.386 241.844 168.701C241.955 168.016 243.337 167.554 243.337 167.554L244.837 167.443C244.837 167.443 245.352 167.801 245.782 165.487C246.943 164.717 251.161 161.888 253.391 159.658C255.999 157.05 263.673 148.43 264.26 146.774C264.847 145.118 262.252 141.604 260.713 138.174Z" fill="white" stroke="#2E353A" stroke-linecap="round" stroke-linejoin="round"/>
<path d="M260.165 136.916C259.011 134.21 258.47 132.502 258.47 132.502C256.488 133.447 250.431 138.52 250.431 138.52L252.961 141.943C255.793 140.99 258.293 139.245 260.165 136.916V136.916Z" fill="#7BE8D8" stroke="#2E353A" stroke-linecap="round" stroke-linejoin="round"/>
<path d="M243.813 129.666L250.079 140.75L253.743 138.266C255.812 136.732 257.645 134.902 259.181 132.835C256.636 128.804 253.792 124.97 250.672 121.366C245.704 115.694 243.344 115.341 241.218 115.459" fill="#2E353A"/>
<path d="M243.813 129.666L250.079 140.75L253.743 138.266C255.812 136.732 257.645 134.902 259.181 132.835C256.636 128.804 253.792 124.97 250.672 121.366C245.704 115.694 243.344 115.341 241.218 115.459" stroke="#2E353A" stroke-linecap="round" stroke-linejoin="round"/>
<path d="M228.543 168.14C228.543 167.677 226.587 162.866 226.587 162.866L220.719 159.638C218.3 154.774 214.584 146.989 213.945 145.62C213.468 144.67 213.071 143.682 212.758 142.667L213.756 140.541C212.241 140.206 210.762 139.73 209.335 139.12C208.233 138.624 207.099 138.044 206.154 137.535C205.632 139.531 204.739 142.967 205.078 144.675C205.417 146.383 213.13 156.15 216.983 161.086C216.983 161.086 218.594 167.912 219.285 168.942L219.976 169.972C219.976 169.972 221.117 171.237 221.691 171.12C222.183 170.965 222.648 170.731 223.066 170.429C223.474 170.562 223.906 170.602 224.331 170.546C224.891 170.305 225.396 169.955 225.818 169.516C225.818 169.516 226.392 170.168 227.774 169.862C229.156 169.555 228.543 168.597 228.543 168.14Z" fill="white" stroke="#2E353A" stroke-linecap="round" stroke-linejoin="round"/>
<path d="M205.436 140.372C207.648 141.869 210.194 142.801 212.85 143.084C212.765 142.83 212.732 142.699 212.732 142.699L213.73 140.574C212.215 140.238 210.736 139.762 209.309 139.152C208.207 138.657 207.073 138.077 206.128 137.568C205.919 138.324 205.632 139.328 205.436 140.372Z" fill="#7BE8D8" stroke="#2E353A" stroke-linecap="round" stroke-linejoin="round"/>
<path d="M120.872 171.668V167.677" stroke="#2E353A" stroke-width="6" stroke-linecap="round" stroke-linejoin="round"/>
<path d="M232.644 224.825L227.709 225.647C227.709 225.647 224.696 226.468 224.149 229.207C222.832 235.798 216.012 238.276 210.196 239.58C201.966 241.483 193.617 242.823 185.205 243.59C172.373 244.731 159.34 244.516 146.632 242.286C139.337 240.982 128.213 239.573 122.776 234.018C122.317 233.598 121.972 233.069 121.772 232.48C121.335 230.876 122.821 229.415 124.256 228.568C126.89 227.157 129.698 226.099 132.608 225.419C140.073 223.371 149.397 222.98 156.354 219.733C158.388 218.788 159.614 217.275 157.54 215.449C151.086 209.731 120.872 208.721 120.872 197.969V171.668" stroke="#2E353A" stroke-width="3" stroke-linecap="round" stroke-linejoin="round"/>
<path d="M214.551 109.526C214.318 108.289 213.91 107.093 213.339 105.972C212.53 104.596 210.307 102.38 209.903 100.28C209.498 98.1808 212.615 95.7162 212.615 95.7162C212.615 95.7162 210.913 95.7162 211.311 94.986C211.709 94.2557 213.658 94.5817 213.658 94.5817C213.526 94.2016 213.494 93.7938 213.564 93.3976C213.635 93.0014 213.807 92.6301 214.062 92.3193C214.949 91.2696 215.275 93.2908 215.275 93.2908C216.231 91.3337 217.714 89.6828 219.559 88.5246C222.467 86.8229 227.643 89.1766 228.211 90.6241C228.778 92.0715 227.409 91.576 227.409 91.576C227.409 91.576 234.359 94.7252 234.842 99.4C235.324 104.075 231.288 103.279 231.288 103.279C231.288 103.279 231.529 106.031 230.962 107.002C230.395 107.974 230.154 108.306 227.324 106.031C224.494 103.755 218.678 104.577 218.352 106.357C218.026 108.137 217.048 110.797 215.608 110.477C214.167 110.158 214.551 109.526 214.551 109.526Z" fill="#2E353A" stroke="#2E353A" stroke-linecap="round" stroke-linejoin="round"/>
<path d="M218.548 98.8784C218.548 98.8784 215.751 96.466 218.802 95.964C221.854 95.4619 222.988 100.913 226.163 102.054C228.125 102.715 230.267 102.579 232.129 101.675" stroke="white" stroke-width="0.5" stroke-linecap="round" stroke-linejoin="round"/>
<path d="M218.072 98.4546C218.072 98.4546 214.871 96.3682 215.145 94.9729C215.419 93.5776 220.582 91.765 223.366 93.4407C226.15 95.1163 226.294 98.598 229.776 99.4326C233.257 100.267 232.703 98.3176 232.286 97.7569" stroke="white" stroke-width="0.5" stroke-linecap="round" stroke-linejoin="round"/>
<path d="M211.943 100.828C211.383 100.13 211.246 97.4831 213.476 97.0658C215.705 96.6485 217.518 99.0218 217.518 99.0218C217.094 99.2957 214.59 99.9933 214.173 102.086C213.756 104.179 215.842 104.173 214.871 105.998" stroke="white" stroke-width="0.5" stroke-linecap="round" stroke-linejoin="round"/>
<path d="M214.956 109.578C214.956 109.578 214.838 109.428 214.662 109.245C214.232 108.802 213.019 108.482 212.648 109.369C212.126 110.627 213.547 113.014 214.604 113.327C214.892 113.423 215.201 113.447 215.501 113.396C215.801 113.344 216.084 113.22 216.325 113.033C216.325 113.033 219.233 118.901 222.89 120.277C226.548 121.653 228.354 117.323 229.508 114.409C230.662 111.495 230.239 110.438 230.239 110.438C230.239 110.438 232.195 110.901 232.801 108.6C233.407 106.298 232.436 105.418 231.81 105.522C231.22 105.688 230.657 105.933 230.134 106.252L229.195 103.742C229.195 103.742 227.415 104.792 224.384 103.638C221.352 102.484 219.885 99.6673 219.168 99.8759C218.45 100.085 218.516 101.962 218.516 101.962C218.516 101.962 217.159 101.232 216.638 101.858C216.116 102.484 217.472 103.221 216.846 105.522C216.221 107.824 215.477 108.528 215.477 108.528C215.477 108.528 215.999 109.571 215.582 109.571L214.956 109.578Z" fill="white" stroke="#2E353A" stroke-linecap="round" stroke-linejoin="round"/>
<path d="M221.006 108.045C221.104 108.489 220.974 108.887 220.726 108.939C220.478 108.991 220.191 108.684 220.074 108.241C219.956 107.798 220.106 107.4 220.361 107.348C220.615 107.296 220.915 107.609 221.006 108.045Z" fill="#2E353A"/>
<path d="M226.02 107.472C226.02 107.922 225.837 108.3 225.577 108.306C225.316 108.313 225.101 107.954 225.088 107.504C225.075 107.054 225.264 106.683 225.524 106.676C225.785 106.67 226 107.022 226.02 107.472Z" fill="#2E353A"/>
<path d="M218.365 106.631C218.547 106.195 218.839 105.814 219.213 105.526C219.587 105.238 220.03 105.052 220.498 104.988" stroke="#2E353A" stroke-linecap="round" stroke-linejoin="round"/>
<path d="M224.638 104.688C225.106 104.575 225.598 104.601 226.052 104.763C226.506 104.925 226.903 105.216 227.194 105.601" stroke="#2E353A" stroke-linecap="round" stroke-linejoin="round"/>
<path d="M225.485 113.998C225.485 113.998 221.899 115.335 220.132 112.838" stroke="#2E353A" stroke-linecap="round" stroke-linejoin="round"/>
<path d="M221.28 113.94C221.28 113.94 221.404 116.372 222.682 116.861C223.96 117.35 224.566 114.253 224.566 114.253C223.461 114.416 222.334 114.308 221.28 113.94V113.94Z" fill="#2E353A" stroke="#2E353A" stroke-linecap="round" stroke-linejoin="round"/>
<path d="M221.573 115.42C221.645 115.726 221.782 116.013 221.974 116.261C222.166 116.51 222.41 116.714 222.688 116.861C223.34 117.115 223.842 116.378 224.155 115.622C223.332 115.306 222.435 115.236 221.573 115.42V115.42Z" fill="white" stroke="#2E353A" stroke-linecap="round" stroke-linejoin="round"/>
<path d="M224.455 105.535C224.072 106.844 224.049 108.231 224.39 109.552C225.003 111.442 225.916 111.508 225.551 111.742C225.185 111.977 223.595 112.29 223.236 111.99" fill="white"/>
<path d="M224.455 105.535C224.072 106.844 224.049 108.231 224.39 109.552C225.003 111.442 225.916 111.508 225.551 111.742C225.185 111.977 223.595 112.29 223.236 111.99" stroke="#2E353A" stroke-linecap="round" stroke-linejoin="round"/>
<path d="M239.308 173.402C239.308 173.402 232.586 189.467 232.364 193.014C232.142 196.561 242.274 226.866 242.509 228.17C242.744 229.474 240.859 229.233 240.859 230.53C240.884 231.429 241.083 232.315 241.446 233.138C241.564 233.49 250.9 236.326 252.439 236.444C253.978 236.561 254.682 236.209 254.682 235.14C254.682 234.071 253.978 230.765 253.978 230.413C253.978 230.061 255.868 227.805 255.158 224.623C254.447 221.441 247.836 201.288 247.008 199.156C246.18 197.024 245.234 194.788 245.234 194.788C245.598 194.255 245.84 193.65 245.945 193.014C246.017 192.464 246.017 191.908 245.945 191.358C245.945 191.358 256.188 174.947 256.201 169.842" fill="#7BE8D8"/>
<path d="M239.308 173.402C239.308 173.402 232.586 189.467 232.364 193.014C232.142 196.561 242.274 226.866 242.509 228.17C242.744 229.474 240.859 229.233 240.859 230.53C240.884 231.429 241.083 232.315 241.446 233.138C241.564 233.49 250.9 236.326 252.439 236.444C253.978 236.561 254.682 236.209 254.682 235.14C254.682 234.071 253.978 230.765 253.978 230.413C253.978 230.061 255.868 227.805 255.158 224.623C254.447 221.441 247.836 201.288 247.008 199.156C246.18 197.024 245.234 194.788 245.234 194.788C245.598 194.255 245.84 193.65 245.945 193.014C246.017 192.464 246.017 191.908 245.945 191.358C245.945 191.358 256.188 174.947 256.201 169.842" stroke="#2E353A" stroke-linecap="round" stroke-linejoin="round"/>
<path d="M246.48 207.378C249.153 215.762 252.309 225.745 252.53 227.231C252.922 229.839 252.139 230.374 252.4 231.678C252.661 232.982 253.182 234.814 253.182 234.814" stroke="#2E353A" stroke-width="0.75" stroke-linecap="round" stroke-linejoin="round"/>
<path d="M252.393 171.772C250.359 176.734 246.617 185.888 245.873 187.772C244.824 190.38 242.992 192.479 243.389 192.74C243.787 193.001 244.824 193.001 244.041 193.914C243.259 194.827 242.737 195.094 242.737 195.485C242.737 195.622 243.937 199.365 245.489 204.235" stroke="#2E353A" stroke-width="0.75" stroke-linecap="round" stroke-linejoin="round"/>
<path d="M253.704 168.545L253.052 170.181" stroke="#2E353A" stroke-width="0.75" stroke-linecap="round" stroke-linejoin="round"/>
<path d="M236.132 171.231C236.132 171.231 236.511 167.038 236.895 166.53" stroke="#2E353A" stroke-width="0.75" stroke-linecap="round" stroke-linejoin="round"/>
<path d="M239.184 166.556C239.184 166.556 237.502 171.948 237.834 171.602" stroke="#2E353A" stroke-width="0.75" stroke-linecap="round" stroke-linejoin="round"/>
<path d="M240.455 166.908L239.692 170.977C239.692 170.977 239.562 171.361 240.71 171.485" stroke="#2E353A" stroke-width="0.75" stroke-linecap="round" stroke-linejoin="round"/>
<path d="M225.792 169.516L225.075 168.688" stroke="#2E353A" stroke-width="0.75" stroke-linecap="round" stroke-linejoin="round"/>
<path d="M223.04 170.429L222.401 169.959" stroke="#2E353A" stroke-width="0.75" stroke-linecap="round" stroke-linejoin="round"/>
<path d="M221.665 171.12L220.752 169.705" stroke="#2E353A" stroke-width="0.75" stroke-linecap="round" stroke-linejoin="round"/>
<path d="M182.16 154.605C186.249 150.173 189.833 145.301 192.846 140.078" stroke="#2E353A" stroke-linecap="round" stroke-linejoin="round"/>
<path d="M129.348 180.378C148.14 178.856 165.804 170.792 179.265 157.591" stroke="#2E353A" stroke-linecap="round" stroke-linejoin="round"/>
<path d="M110.727 179.772C113.342 180.165 115.975 180.426 118.616 180.555" stroke="#2E353A" stroke-linecap="round" stroke-linejoin="round"/>
<path d="M86.0618 170.468C87.7352 171.337 89.4326 172.148 91.1539 172.9" stroke="#2E353A" stroke-linecap="round" stroke-linejoin="round"/>
<path d="M42.9711 105.998C44.121 118.676 48.2399 130.905 54.9943 141.695C61.7486 152.486 70.9487 161.534 81.8498 168.108" stroke="#2E353A" stroke-linecap="round" stroke-linejoin="round"/>
<path d="M168.259 33.548C156.748 25.5869 143.372 20.742 129.432 19.4852C115.492 18.2283 101.465 20.6023 88.7153 26.376" stroke="#2E353A" stroke-linecap="round" stroke-linejoin="round"/>
<path d="M196.791 67.1586C195.987 65.333 195.117 63.5466 194.183 61.7992" stroke="#2E353A" stroke-linecap="round" stroke-linejoin="round"/>
<path d="M165.586 155.994C169.949 152.753 173.936 149.036 177.472 144.91" stroke="#2E353A" stroke-linecap="round" stroke-linejoin="round"/>
<path d="M114.469 170.07C131.387 171.843 148.391 167.628 162.522 158.158" stroke="#2E353A" stroke-linecap="round" stroke-linejoin="round"/>
<path d="M98.052 166.439C100.286 167.208 102.575 167.875 104.918 168.44" stroke="#2E353A" stroke-linecap="round" stroke-linejoin="round"/>
<path d="M52.0469 118.432C52.538 120.062 53.0836 121.67 53.6834 123.257" stroke="#2E353A" stroke-linecap="round" stroke-linejoin="round"/>
<path d="M66.5278 49.9915C59.0662 58.7215 53.765 69.0857 51.0533 80.2452C48.3416 91.4047 48.2955 103.046 50.9189 114.226" stroke="#2E353A" stroke-linecap="round" stroke-linejoin="round"/>
<path d="M152.748 31.266C141.291 25.9565 128.652 23.7062 116.066 24.7346C103.48 25.763 91.3745 30.0349 80.9305 37.134" stroke="#2E353A" stroke-linecap="round" stroke-linejoin="round"/>
<path d="M189.925 70.7903C183.94 55.5933 173.049 42.8318 158.981 34.5325" stroke="#2E353A" stroke-linecap="round" stroke-linejoin="round"/>
<path d="M193.074 80.8832C192.67 79.1294 192.194 77.4015 191.66 75.6998" stroke="#2E353A" stroke-linecap="round" stroke-linejoin="round"/>
<path d="M190.075 98.2329C190.075 97.3723 190.845 96.4986 190.812 95.6249C190.779 94.7513 189.945 93.9493 189.886 93.1017C189.828 92.2541 190.538 91.3152 190.434 90.4937C190.33 89.6722 189.443 88.8898 189.319 88.0422C189.195 87.1946 189.828 86.2166 189.665 85.3755C189.502 84.5344 188.563 83.8498 188.361 83.0153C188.158 82.1807 188.726 81.1571 188.51 80.329C188.295 79.501 187.291 78.8946 187.037 78.0731C186.783 77.2516 187.265 76.1888 186.985 75.3869C186.704 74.5849 185.681 74.0437 185.348 73.2483C185.016 72.4529 185.433 71.351 185.094 70.5686C184.755 69.7862 183.673 69.3298 183.301 68.5604C182.929 67.7911 183.242 66.6631 182.845 65.9068C182.447 65.1505 181.338 64.7853 180.889 64.0421C180.439 63.2988 180.693 62.1578 180.237 61.4341C179.78 60.7103 178.646 60.4235 178.163 59.7193C177.681 59.0151 177.824 57.8546 177.316 57.1635C176.807 56.4723 175.66 56.2767 175.125 55.6052C174.59 54.9336 174.649 53.7731 174.088 53.1211C173.527 52.4691 172.367 52.3582 171.787 51.7323C171.206 51.1064 171.174 49.9393 170.567 49.3329C169.961 48.7266 168.794 48.6809 168.168 48.1137C167.542 47.5465 167.425 46.3729 166.779 45.8121C166.134 45.2514 164.96 45.3101 164.295 44.7755C163.63 44.2408 163.421 43.0933 162.737 42.5847C162.052 42.0762 160.892 42.2196 160.181 41.7371C159.47 41.2547 159.19 40.1202 158.46 39.6638C157.73 39.2074 156.595 39.4421 155.852 39.0118C155.108 38.5815 154.743 37.4796 153.987 37.0558C153.231 36.632 152.103 36.971 151.333 36.5994C150.564 36.2277 150.114 35.1519 149.325 34.8064C148.536 34.4608 147.448 34.8651 146.646 34.5521C145.844 34.2391 145.342 33.2025 144.507 32.9156C143.672 32.6287 142.642 33.1177 141.821 32.8634C140.999 32.6091 140.393 31.6181 139.565 31.3964C138.737 31.1747 137.72 31.7355 136.879 31.5399C136.037 31.3443 135.366 30.4054 134.518 30.2359C133.671 30.0663 132.706 30.7118 131.852 30.5814C130.998 30.451 130.261 29.5643 129.407 29.4665C128.553 29.3687 127.627 30.0794 126.799 30.0142C125.971 29.949 125.13 29.1209 124.269 29.0883C123.408 29.0557 122.548 29.8316 121.661 29.8316C120.774 29.8316 119.933 29.0557 119.053 29.0883C118.173 29.1209 117.377 29.9555 116.523 30.0142C115.669 30.0729 114.743 29.3622 113.915 29.4665C113.087 29.5708 112.311 30.4575 111.47 30.5814C110.629 30.7053 109.645 30.0729 108.803 30.2359C107.962 30.3989 107.278 31.3377 106.443 31.5399C105.609 31.742 104.585 31.1747 103.757 31.3964C102.929 31.6181 102.316 32.6091 101.501 32.8634C100.686 33.1177 99.6168 32.6352 98.8083 32.9156C97.9998 33.1959 97.5043 34.2196 96.6763 34.5521C95.8482 34.8846 94.7789 34.4673 93.9965 34.8064C93.2141 35.1454 92.7577 36.2277 91.9884 36.5994C91.219 36.971 90.0911 36.6581 89.3348 37.0558C88.5784 37.4535 88.2068 38.5619 87.47 39.0118C86.7333 39.4617 85.5792 39.2139 84.862 39.6638C84.1448 40.1137 83.8514 41.2481 83.1473 41.7306C82.4431 42.2131 81.2825 42.0697 80.5914 42.5782C79.9003 43.0868 79.7047 44.2343 79.0332 44.7755C78.3616 45.3166 77.201 45.2449 76.549 45.8056C75.897 46.3663 75.7862 47.5269 75.1603 48.1072C74.5343 48.6875 73.3673 48.7201 72.7609 49.3264C72.1546 49.9328 72.1089 51.0999 71.5417 51.7258C70.9744 52.3517 69.8204 52.456 69.2597 53.108C68.6989 53.76 68.7576 54.9206 68.223 55.5921C67.6883 56.2637 66.5408 56.4593 66.0323 57.1504C65.5237 57.8415 65.6671 58.9956 65.1847 59.6997C64.7022 60.4039 63.5677 60.6908 63.1113 61.421C62.6549 62.1513 62.8896 63.2857 62.4593 64.029C62.029 64.7723 60.9206 65.1374 60.5033 65.9003C60.086 66.6631 60.4186 67.778 60.0469 68.5474C59.6753 69.3167 58.5995 69.7731 58.2539 70.5555C57.9084 71.3379 58.3126 72.4333 57.9996 73.2353C57.6867 74.0372 56.6435 74.5393 56.3631 75.3738C56.0827 76.2084 56.5587 77.2385 56.3109 78.0601C56.0632 78.8816 55.0591 79.4879 54.8374 80.316C54.6158 81.144 55.1765 82.1677 54.9874 83.0022C54.7983 83.8368 53.8529 84.5149 53.6834 85.3625C53.5139 86.2101 54.1659 87.1815 54.0355 88.0291C53.9051 88.8767 53.0184 89.62 52.9206 90.4807C52.8228 91.3413 53.5334 92.2541 53.4682 93.0887C53.403 93.9232 52.5685 94.7513 52.5424 95.6119C52.5163 96.4725 53.2792 97.3397 53.2792 98.2199C53.2792 99.1001 52.5098 99.9477 52.5424 100.828C52.575 101.708 53.4095 102.504 53.4682 103.358C53.5269 104.212 52.8162 105.138 52.9206 105.966C53.0249 106.794 53.9116 107.57 54.0355 108.411C54.1594 109.252 53.5269 110.243 53.6834 111.084C53.8399 111.925 54.7918 112.603 54.9874 113.438C55.183 114.272 54.6158 115.302 54.8374 116.124C55.0591 116.945 56.0567 117.565 56.3109 118.38C56.5652 119.195 56.0827 120.264 56.3631 121.072C56.6435 121.881 57.6671 122.409 57.9996 123.211C58.3322 124.013 57.9149 125.102 58.2539 125.884C58.593 126.667 59.6753 127.123 60.0469 127.892C60.4186 128.662 60.0991 129.79 60.5033 130.546C60.9076 131.302 62.0094 131.674 62.4593 132.417C62.9092 133.161 62.6549 134.302 63.1113 135.025C63.5677 135.749 64.7022 136.036 65.1847 136.74C65.6671 137.444 65.5237 138.605 66.0323 139.296C66.5408 139.987 67.6883 140.183 68.223 140.854C68.7576 141.526 68.6989 142.693 69.2597 143.338C69.8204 143.984 70.9809 144.101 71.5612 144.734C72.1415 145.366 72.1741 146.527 72.7805 147.133C73.3868 147.739 74.5539 147.785 75.1798 148.346C75.8057 148.906 75.9231 150.093 76.5686 150.647C77.2141 151.201 78.3811 151.149 79.0527 151.684C79.7243 152.219 79.9264 153.366 80.611 153.875C81.2956 154.383 82.4561 154.24 83.1668 154.722C83.8775 155.205 84.1579 156.339 84.8881 156.796C85.6183 157.252 86.7528 157.017 87.4961 157.448C88.2394 157.878 88.6045 158.986 89.3608 159.404C90.1171 159.821 91.2386 159.488 92.0145 159.86C92.7904 160.232 93.2337 161.307 94.0226 161.653C94.8116 161.999 95.9004 161.594 96.7023 161.907C97.5043 162.22 98.0064 163.263 98.8409 163.544C99.6755 163.824 100.706 163.348 101.527 163.596C102.349 163.844 102.955 164.848 103.783 165.069C104.611 165.291 105.628 164.73 106.469 164.919C107.31 165.109 107.982 166.054 108.83 166.223C109.677 166.393 110.642 165.741 111.496 165.871C112.35 166.002 113.087 166.889 113.941 166.986C114.795 167.084 115.721 166.373 116.549 166.439C117.377 166.504 118.218 167.338 119.079 167.371C119.94 167.404 120.8 166.628 121.687 166.628C122.574 166.628 123.421 167.397 124.295 167.371C125.169 167.345 125.971 166.504 126.818 166.439C127.666 166.373 128.605 167.091 129.426 166.986C130.248 166.882 131.03 165.995 131.878 165.871C132.725 165.748 133.703 166.38 134.544 166.223C135.386 166.067 136.07 165.115 136.905 164.919C137.739 164.724 138.763 165.291 139.591 165.069C140.419 164.848 141.032 163.85 141.847 163.596C142.662 163.342 143.731 163.824 144.54 163.544C145.348 163.263 145.876 162.24 146.672 161.907C147.467 161.575 148.569 161.999 149.351 161.653C150.134 161.307 150.59 160.232 151.36 159.86C152.129 159.488 153.257 159.808 154.013 159.404C154.769 158.999 155.141 157.897 155.878 157.448C156.615 156.998 157.762 157.252 158.486 156.796C159.21 156.339 159.496 155.205 160.201 154.722C160.905 154.24 162.065 154.383 162.756 153.875C163.448 153.366 163.643 152.219 164.315 151.684C164.986 151.149 166.147 151.208 166.799 150.647C167.451 150.086 167.562 148.926 168.188 148.346C168.814 147.765 169.981 147.733 170.587 147.126C171.193 146.52 171.239 145.359 171.806 144.727C172.373 144.095 173.547 143.984 174.108 143.338C174.668 142.693 174.61 141.526 175.144 140.854C175.679 140.183 176.827 139.987 177.335 139.296C177.844 138.605 177.7 137.451 178.183 136.74C178.665 136.029 179.8 135.749 180.256 135.025C180.713 134.302 180.478 133.154 180.908 132.417C181.338 131.681 182.44 131.309 182.864 130.553C183.288 129.796 182.949 128.675 183.321 127.899C183.692 127.123 184.768 126.68 185.114 125.891C185.459 125.102 185.055 124.013 185.368 123.211C185.681 122.409 186.717 121.907 187.004 121.079C187.291 120.251 186.802 119.208 187.057 118.386C187.311 117.565 188.308 116.965 188.53 116.13C188.752 115.296 188.191 114.285 188.38 113.444C188.569 112.603 189.515 111.931 189.684 111.09C189.854 110.249 189.208 109.271 189.339 108.417C189.469 107.563 190.356 106.826 190.453 105.972C190.551 105.118 189.841 104.192 189.906 103.364C189.971 102.536 190.799 101.695 190.832 100.834C190.864 99.9738 190.075 99.0936 190.075 98.2329Z" fill="#7BE8D8" stroke="#2E353A" stroke-width="2" stroke-linecap="round" stroke-linejoin="round"/>
<path d="M101.208 33.1307L102.414 36.5081" stroke="#2E353A" stroke-width="2" stroke-linecap="round" stroke-linejoin="round"/>
<path d="M96.6177 34.9433L97.7065 37.5969" stroke="#2E353A" stroke-width="2" stroke-linecap="round" stroke-linejoin="round"/>
<path d="M180.628 64.1529C178.655 65.8445 176.411 67.1913 173.99 68.1366" stroke="#2E353A" stroke-width="2" stroke-linecap="round" stroke-linejoin="round"/>
<path d="M183.04 68.6191C182.142 69.1877 181.215 69.7099 180.263 70.1839" stroke="#2E353A" stroke-width="2" stroke-linecap="round" stroke-linejoin="round"/>
<path d="M82.8605 154.82C82.8605 154.82 85.7554 151.56 86.2378 149.148" stroke="#2E353A" stroke-width="2" stroke-linecap="round" stroke-linejoin="round"/>
<path d="M74.769 148.157C74.769 148.157 77.188 145.144 77.6705 144.662" stroke="#2E353A" stroke-width="2" stroke-linecap="round" stroke-linejoin="round"/>
<path d="M136.813 164.574L135.849 159.267" stroke="#2E353A" stroke-width="2" stroke-linecap="round" stroke-linejoin="round"/>
<path d="M142.121 163.492L141.397 160.473" stroke="#2E353A" stroke-width="2" stroke-linecap="round" stroke-linejoin="round"/>
<path d="M164.21 151.54L160.109 146.95" stroke="#2E353A" stroke-width="2" stroke-linecap="round" stroke-linejoin="round"/>
<path d="M183.523 127.879L177.368 124.626" stroke="#2E353A" stroke-width="2" stroke-linecap="round" stroke-linejoin="round"/>
<path d="M53.7682 98.3112L58.9581 98.4285" stroke="#2E353A" stroke-width="2" stroke-linecap="round" stroke-linejoin="round"/>
<path d="M61.1293 98.5524L63.6656 98.6698" stroke="#2E353A" stroke-width="2" stroke-linecap="round" stroke-linejoin="round"/>
<path d="M60.4055 128.245C61.0119 128.003 64.9695 126.941 64.9695 126.941" stroke="#2E353A" stroke-width="2" stroke-linecap="round" stroke-linejoin="round"/>
<path d="M136.853 31.6442C136.487 32.3745 135.757 36.5799 135.757 36.5799" stroke="#2E353A" stroke-width="2" stroke-linecap="round" stroke-linejoin="round"/>
<path d="M141.599 33.2872L141.052 36.0322" stroke="#2E353A" stroke-width="2" stroke-linecap="round" stroke-linejoin="round"/>
<path d="M160.416 42.2392L158.955 44.0648" stroke="#2E353A" stroke-width="2" stroke-linecap="round" stroke-linejoin="round"/>
<path d="M65.0608 59.778L68.712 61.7862" stroke="#2E353A" stroke-width="2" stroke-linecap="round" stroke-linejoin="round"/>
<path d="M70.9093 62.8815L73.8303 64.5246" stroke="#2E353A" stroke-width="2" stroke-linecap="round" stroke-linejoin="round"/>
<path d="M141.012 78.3013C141.012 78.3013 139.897 76.5735 134.264 73.0201C128.631 69.4667 114.052 66.0893 108.308 62.9858C102.564 59.7845 96.1612 53.747 93.9248 50.8456C91.6885 47.9442 92.034 45.7534 90.2345 45.5774C88.435 45.4014 86.6355 46.2294 85.3836 49.998C84.1318 53.7665 85.664 63.2075 86.6876 66.1089C87.7113 69.0103 90.717 70.8489 92.6273 71.6183C94.5377 72.3876 98.8083 74.4154 98.8018 76.2344C98.7953 78.0535 98.5671 78.4121 97.7781 78.549C96.9892 78.686 79.646 81.2548 76.9728 82.0307C74.2996 82.8066 73.1456 87.677 73.9084 91.5173C74.6712 95.3576 77.6965 96.5638 76.7837 99.2892C75.8709 102.015 74.2996 105.209 75.8514 108.828C77.4031 112.447 80.3176 111.886 79.1831 114.696C78.0486 117.506 78.0356 120.792 79.483 122.905C80.9305 125.017 82.8408 126.386 82.8278 128.949C82.8147 131.511 87.2875 137.151 90.0976 137.953C91.4863 138.37 104.096 139.752 116.373 139.876C128.644 140.189 140.582 139.224 140.562 139.224C140.71 118.903 140.86 98.5959 141.012 78.3013Z" fill="white" stroke="#2E353A" stroke-width="3" stroke-linecap="round" stroke-linejoin="round"/>
<path d="M165.514 137.32C158.212 138.424 150.884 139.237 143.529 139.759C143.053 139.78 142.579 139.701 142.136 139.526C141.693 139.352 141.291 139.087 140.958 138.747C140.624 138.408 140.365 138.002 140.198 137.557C140.031 137.111 139.96 136.635 139.989 136.16C140.063 117.813 140.136 99.4739 140.21 81.144C140.192 80.6622 140.271 80.1816 140.442 79.7307C140.613 79.2799 140.872 78.868 141.206 78.5195C141.539 78.171 141.939 77.8931 142.382 77.7022C142.824 77.5112 143.301 77.4112 143.783 77.4081C151.138 77.6167 158.466 77.9145 165.769 78.3013C166.72 78.3687 167.611 78.7932 168.263 79.4896C168.914 80.1861 169.279 81.103 169.283 82.0568C169.205 99.0914 169.129 116.139 169.055 133.2C169.026 134.188 168.659 135.137 168.014 135.887C167.37 136.637 166.487 137.143 165.514 137.32V137.32Z" fill="#2E353A" stroke="#2E353A" stroke-width="3" stroke-linecap="round" stroke-linejoin="round"/>
<path d="M149.188 133.193C149.206 132.835 149.149 132.477 149.02 132.143C148.891 131.809 148.693 131.505 148.439 131.252C148.185 130.999 147.881 130.802 147.546 130.673C147.212 130.545 146.854 130.488 146.496 130.507C145.741 130.588 145.045 130.948 144.542 131.516C144.039 132.084 143.766 132.819 143.777 133.578C143.755 133.938 143.81 134.298 143.937 134.635C144.065 134.973 144.262 135.279 144.516 135.535C144.771 135.79 145.076 135.989 145.413 136.118C145.75 136.247 146.11 136.304 146.47 136.284C147.223 136.191 147.916 135.825 148.417 135.255C148.918 134.686 149.193 133.952 149.188 133.193V133.193Z" fill="white" stroke="#2E353A" stroke-width="3" stroke-linecap="round" stroke-linejoin="round"/>
<path d="M140.784 71.5857C148.015 71.5857 153.876 65.7242 153.876 58.4936C153.876 51.263 148.015 45.4014 140.784 45.4014C133.553 45.4014 127.692 51.263 127.692 58.4936C127.692 65.7242 133.553 71.5857 140.784 71.5857Z" fill="white"/>
<path d="M162.851 77.8755C164.751 75.9761 164.751 72.8964 162.851 70.9969C160.952 69.0974 157.872 69.0974 155.973 70.9969C154.073 72.8964 154.073 75.9761 155.973 77.8755C157.872 79.775 160.952 79.775 162.851 77.8755Z" fill="white"/>
<path opacity="0.2" d="M116.791 164.372C117.612 164.431 118.394 165.239 119.229 165.272C120.064 165.304 120.898 164.554 121.726 164.554C122.554 164.554 123.402 165.298 124.23 165.272C125.058 165.246 125.847 164.431 126.668 164.372C127.49 164.313 128.39 165.024 129.211 164.9C130.033 164.776 130.763 163.948 131.578 163.824C132.393 163.7 133.345 164.313 134.186 164.163C135.027 164.013 135.659 163.094 136.461 162.911C137.263 162.729 138.261 163.27 139.069 163.055C139.878 162.84 140.458 161.881 141.247 161.633C142.036 161.386 143.066 161.855 143.855 161.581C144.644 161.307 145.159 160.277 145.922 160.003C146.685 159.73 147.754 160.088 148.53 159.756C149.306 159.423 149.723 158.386 150.486 158.021C151.249 157.656 152.318 157.969 153.048 157.585C153.778 157.2 154.137 156.124 154.854 155.713C155.571 155.303 156.68 155.518 157.378 155.061C158.075 154.605 158.356 153.523 159.04 153.06C159.725 152.597 160.84 152.734 161.505 152.238C162.17 151.743 162.365 150.634 163.011 150.119C163.656 149.604 164.784 149.663 165.41 149.122C166.036 148.58 166.147 147.459 166.753 146.898C167.36 146.338 168.488 146.305 169.074 145.718C169.661 145.131 169.687 144.01 170.248 143.404C170.809 142.797 171.937 142.686 172.478 142.054C173.019 141.421 172.96 140.307 173.475 139.655C173.99 139.003 175.099 138.813 175.594 138.148C176.09 137.483 175.946 136.368 176.416 135.684C176.885 134.999 177.974 134.725 178.411 134.021C178.848 133.317 178.633 132.215 179.063 131.498C179.493 130.781 180.55 130.429 180.934 129.698C181.319 128.968 181.019 127.879 181.378 127.136C181.736 126.393 182.779 125.956 183.112 125.18C183.444 124.404 183.053 123.368 183.36 122.572C183.666 121.777 184.664 121.268 184.938 120.505C185.211 119.742 184.742 118.699 184.99 117.897C185.237 117.095 186.196 116.522 186.411 115.72C186.626 114.918 186.079 113.933 186.268 113.112C186.457 112.29 187.363 111.651 187.519 110.836C187.676 110.021 187.057 109.082 187.18 108.228C187.304 107.374 188.165 106.683 188.256 105.861C188.348 105.04 187.663 104.147 187.728 103.312C187.793 102.477 188.595 101.708 188.621 100.874C188.647 100.039 187.904 99.2044 187.904 98.3764C187.904 97.5484 188.654 96.7008 188.621 95.8727C188.589 95.0447 187.787 94.2558 187.728 93.4342C187.669 92.6127 188.348 91.713 188.256 90.8914C188.165 90.0699 187.298 89.3397 187.18 88.5247C187.063 87.7097 187.669 86.7578 187.519 85.9167C187.37 85.0756 186.45 84.4432 186.268 83.6412C186.23 83.4634 186.219 83.281 186.235 83.1C140.334 122.22 83.219 119.201 57.2108 115.152C57.1994 115.321 57.2148 115.49 57.2564 115.654C57.4716 116.456 58.43 117.043 58.6778 117.832C58.9255 118.621 58.4561 119.651 58.7299 120.44C59.0038 121.229 60.0339 121.744 60.3078 122.5C60.5816 123.257 60.223 124.333 60.5555 125.108C60.8881 125.884 61.9247 126.308 62.2898 127.064C62.655 127.821 62.342 128.897 62.7267 129.627C63.1114 130.357 64.1872 130.716 64.5979 131.433C65.0087 132.15 64.7935 133.252 65.2499 133.95C65.7063 134.647 66.7886 134.928 67.2516 135.612C67.7145 136.297 67.5776 137.412 68.0731 138.083C68.5686 138.755 69.677 138.937 70.1921 139.589C70.7072 140.241 70.6485 141.356 71.1896 141.989C71.7308 142.621 72.8522 142.725 73.413 143.332C73.9737 143.938 74.0063 145.066 74.5931 145.653C75.1799 146.24 76.3013 146.259 76.9077 146.827C77.514 147.394 77.6249 148.509 78.2573 149.05C78.8898 149.591 80.0047 149.532 80.6567 150.047C81.3087 150.562 81.4978 151.677 82.1628 152.166C82.8278 152.655 83.9428 152.518 84.6274 152.988C85.312 153.457 85.5858 154.546 86.29 154.99C86.9941 155.433 88.096 155.205 88.8132 155.642C89.5304 156.078 89.8825 157.122 90.6127 157.513C91.343 157.904 92.4318 157.591 93.1751 157.956C93.9184 158.321 94.3552 159.351 95.1311 159.684C95.907 160.016 96.9436 159.625 97.7391 159.932C98.5345 160.238 99.0431 161.236 99.8059 161.51C100.569 161.783 101.612 161.32 102.414 161.562C103.216 161.803 103.79 162.768 104.592 162.983C105.394 163.198 106.378 162.657 107.2 162.84C108.021 163.022 108.667 163.935 109.482 164.091C110.297 164.248 111.235 163.629 112.057 163.752C112.879 163.876 113.602 164.737 114.424 164.828C115.245 164.92 115.956 164.313 116.791 164.372Z" fill="black"/>
</svg>
